<?xml version="1.0" encoding="UTF-8"?>
<!DOCTYPE svg PUBLIC "-//W3C//DTD SVG 1.1//EN" "http://www.w3.org/Graphics/SVG/1.1/DTD/svg11.dtd">
<!-- Creator: CorelDRAW X7 -->
<svg xmlns="http://www.w3.org/2000/svg" xml:space="preserve" width="70.0388mm" height="79.3081mm" version="1.1" style="shape-rendering:geometricPrecision; text-rendering:geometricPrecision; image-rendering:optimizeQuality; fill-rule:evenodd; clip-rule:evenodd"
viewBox="0 0 2855 3233"
 xmlns:xlink="http://www.w3.org/1999/xlink">
 <defs>
  <style type="text/css">
   <![CDATA[
    .fil0 {fill:#057AB4}
    .fil1 {fill:#057AB4;fill-opacity:0.129412}
   ]]>
  </style>
 </defs>
 <g id="Layer_x0020_1">
  <metadata id="CorelCorpID_0Corel-Layer"/>
  <path class="fil0" d="M479 2461c20,0 45,2 65,1 26,-2 20,-18 23,-42 3,-23 1,-40 5,-61 4,-23 10,-31 16,-49 7,-21 4,-32 13,-53 8,-19 12,-23 20,-45 7,-17 16,-26 24,-42 22,-42 75,-96 111,-120 25,-17 78,-47 106,-57 18,-6 26,-13 47,-18 30,-8 136,-34 168,-21 32,12 54,44 45,82 -5,19 -11,31 -27,38 -84,38 -105,9 -156,41 -16,11 -30,9 -47,18 -37,20 -83,55 -110,87 -7,8 -8,12 -14,21l-22 43c-5,11 -6,11 -12,19 -13,19 -9,27 -15,51 -12,43 -22,28 -22,105 0,71 8,44 42,64 12,7 -3,2 29,19l54 39c11,10 15,12 25,20 47,42 53,61 67,75 15,15 7,13 16,32 9,19 13,11 20,29 4,12 5,24 10,35 5,13 12,18 16,31 13,39 35,134 12,176 -2,3 -2,3 -3,7 -7,14 -7,13 -21,21 -18,8 -23,15 -50,11 -68,-12 -54,-68 -57,-111 -1,-28 -26,-106 -39,-126l-15 -26c-6,-12 -44,-54 -57,-63 -9,-5 -5,-1 -13,-8 -37,-30 -16,-10 -38,-24 -27,-18 -86,-38 -118,-47 -23,-7 -41,-10 -66,-14 -65,-10 -89,6 -108,-58 -8,-28 5,-41 15,-59 11,-19 32,-21 61,-21zm658 -904c-10,6 -7,7 -18,13 -17,9 -28,12 -45,22l-94 33c-15,5 -38,6 -49,16 -38,36 -21,70 -33,94 -6,11 -8,9 -14,21 -17,34 -6,15 -25,41 -23,31 -15,22 -47,49l-57 40c-38,18 -28,16 -40,23 -3,1 -20,6 -24,7 -40,8 -109,30 -143,14 -35,-16 -53,-25 -53,-68 0,-23 7,-36 20,-46 13,-10 27,-18 47,-20 39,-4 78,-4 107,-20 28,-16 56,-27 77,-54 7,-8 8,-11 15,-19 6,-6 10,-10 13,-18 21,-49 -25,-54 -58,-60 -15,-3 -28,-12 -46,-20 -15,-5 -12,-3 -23,-12l-37 -25c-8,-5 -9,-8 -17,-14l-36 -29c-28,-23 -36,-46 -44,-57l-25 -37c-5,-7 -10,-9 -15,-17 -8,-15 -8,-33 -18,-46 -8,-11 -8,-9 -13,-23 -11,-33 -27,-59 -29,-67 -6,-24 -5,-26 -14,-48 -9,-19 -19,-86 -18,-114 1,-41 32,-61 73,-55 33,4 25,3 41,25 8,12 8,6 13,22 8,24 7,69 12,85 6,22 14,14 19,44 7,49 6,26 17,47 9,16 6,28 18,44 7,8 9,12 13,22 16,37 12,18 24,38 13,23 77,89 99,96 34,10 21,23 69,24 24,1 38,6 59,7 26,2 37,-4 58,-6 24,-2 39,2 57,-9 25,-15 12,-10 42,-19 16,-6 88,-47 106,-60 15,-11 39,-31 56,-37 41,-15 77,23 81,47 11,56 -39,82 -62,100l-39 26zm93 1591c18,-13 79,-77 90,-100l18 -30c7,-11 28,-96 28,-111l0 -193c0,-37 -10,-54 -19,-85 -8,-28 -15,-50 -30,-74 -5,-9 -9,-10 -16,-18 -17,-18 -28,-36 -50,-50 -16,-10 -18,-17 -38,-28 -17,-10 -28,-15 -49,-21 -81,-21 -130,19 -167,-52 -1,-1 -1,-2 -2,-2 -1,-2 -2,-5 -3,-7 -4,-12 -3,-31 2,-42 6,-15 16,-29 31,-37 5,-2 6,-3 10,-4 33,-19 115,-13 149,-3 12,4 17,7 32,11 39,10 25,6 54,25 15,9 16,6 38,21 5,3 8,4 13,7 15,9 9,8 31,8 13,0 14,-12 14,-25l0 -1149c0,-39 -14,-109 -32,-141 -23,-39 -70,-101 -117,-108 -51,-8 -58,17 -97,16 -23,0 -56,-27 -64,-47 -6,-13 -14,-21 -9,-43 17,-72 85,-76 149,-77 22,0 79,14 98,20 25,8 72,50 72,-3l0 -615c0,-45 0,-73 -22,-116 -9,-16 -30,-39 -46,-47 -37,-22 -99,-38 -155,-21 -29,8 -66,15 -95,25l-47 22c-15,5 -22,6 -35,14 -16,10 -9,7 -31,14 -18,5 -18,10 -31,17 -14,7 -18,9 -29,16 18,40 29,30 56,56 15,14 37,26 60,50 11,12 15,16 26,29l23 32c8,16 14,15 22,33 17,34 17,77 -9,99 -42,36 -72,25 -109,-12 -12,-11 -9,-9 -17,-24 -8,-16 -42,-51 -55,-66 -29,-30 -63,-49 -101,-65 -28,-11 -31,-12 -68,-12 -47,0 -53,6 -92,23 -22,11 -45,36 -60,54l-23 36c-15,20 -33,106 -32,133 0,26 -1,54 9,73 30,55 70,18 144,51l48 17c16,6 25,14 41,21 43,23 127,102 146,144 7,16 2,7 12,19 10,12 12,28 21,41 7,10 8,6 13,21 3,7 5,16 7,24 5,17 14,26 18,44 13,57 21,158 2,211 -5,15 -10,15 -20,23 -20,16 -24,25 -68,17 -13,-2 -16,-7 -25,-15 -47,-36 -13,-119 -36,-192 -6,-17 -10,-48 -18,-62 -8,-13 -17,-38 -28,-51 -30,-38 -67,-71 -110,-94 -24,-13 -16,-16 -52,-27 -37,-10 -25,-20 -97,-20 -99,0 -88,13 -164,30 -19,4 -16,6 -30,14 -14,9 -21,5 -33,13 -11,6 -10,12 -25,19 -25,12 -52,42 -65,67 -34,62 -21,26 -35,96 -12,63 -18,48 -18,131 0,70 33,139 9,171 -11,15 -16,32 -27,48 -7,9 -7,15 -12,27 -3,9 -8,22 -12,29 -12,22 -23,57 -32,82 -7,19 -9,47 -14,65 -9,38 -8,111 -1,147 2,14 5,17 8,30 8,33 7,23 22,50 18,35 53,77 89,94 31,15 60,42 93,51 21,6 33,19 50,22 93,18 42,2 116,34 32,14 33,80 8,102 -37,30 -63,25 -112,9 -20,-6 -39,-8 -59,-13 -17,-5 -34,-16 -50,-23l-53 -23c-22,-6 -31,-15 -46,-26 -11,-7 -17,-8 -25,-13 -15,-10 -30,-24 -51,-6 -13,12 -13,36 -19,52 -5,11 -10,18 -12,26 -11,60 8,135 29,188 18,43 29,49 41,72 20,36 52,71 87,93 8,6 16,9 25,13 15,7 38,11 47,25 2,3 11,21 12,22 11,26 -22,139 -2,220 5,21 16,40 21,62 6,24 5,14 15,30 6,9 7,18 13,28 17,25 35,52 55,73l42 41c9,6 15,10 24,18 14,13 34,21 52,30 29,13 80,3 109,19 10,5 17,9 25,16 21,22 26,60 55,111 15,28 57,69 82,87 49,36 135,54 196,54l7 0c56,0 111,-11 165,-25l69 -24c12,-5 18,-12 30,-19 8,-5 21,-12 28,-17z"/>
  <g id="_2718504854960">
   <path class="fil0" d="M2350 129c20,7 29,8 56,9 4,4 4,5 7,10 3,4 -2,1 7,6 18,10 16,0 37,18 8,8 19,8 31,14 12,6 11,12 27,19 15,6 48,34 64,45 12,8 8,11 26,22l92 110c4,5 4,9 6,14 5,9 5,7 11,13 9,10 11,24 17,31 5,6 6,2 11,8 4,5 4,11 7,17 5,16 9,17 19,26 7,14 -7,25 18,40 2,38 19,56 21,72 16,126 19,114 9,230 -3,27 -6,45 -14,66l-7 20c-7,22 -17,42 -28,63 -8,15 -11,12 -18,23 -12,16 -6,8 -19,20 -9,7 -30,32 -42,37l-26 15c-4,4 -5,6 -11,8l-45 15c-19,10 -107,10 -135,6 -18,-3 -26,-7 -40,-10l-41 -9c-18,-5 -15,-12 -33,-17 -29,-9 -24,-14 -46,-28 -20,-13 -29,-32 -36,-42 -7,-9 -14,-18 -17,-32 -7,-34 0,-53 23,-77 59,-65 174,-38 251,-38 32,0 81,-3 103,-24 5,-5 13,-8 17,-14 3,-5 6,-19 5,-26 -3,-23 -12,-24 -23,-40 -11,-14 -65,-37 -87,-38 -84,-3 -77,-12 -115,-16 -96,-9 -64,-19 -100,-26 -59,-11 -103,-63 -61,-104 4,-4 11,-10 18,-13 38,-16 31,-10 74,4 30,9 21,15 40,25 8,-5 5,-4 12,-9 -5,-29 -21,-33 -42,-45 -10,-6 -5,-7 -20,-9 -56,-10 -94,-2 -120,51 -7,15 -19,18 -13,46 4,15 26,39 40,49 6,4 12,6 18,10 23,19 10,9 37,19 24,9 13,10 44,16 18,4 35,5 52,8 13,2 8,5 20,9 7,2 16,2 26,3 16,3 101,7 108,10 11,4 -3,2 40,19l26 30c-2,3 -34,32 -36,33 -40,17 -201,-9 -259,7 -19,5 -19,15 -40,20 -13,4 11,-4 -5,2 -12,4 -7,8 -20,15 -11,6 -9,7 -15,15 -8,10 -10,4 -15,15 -5,9 -3,12 -10,23 -24,38 -5,48 4,70 3,10 5,17 7,26 29,14 9,8 22,25 4,6 8,5 13,10 7,9 1,8 13,15 8,5 6,2 13,9 8,7 4,6 14,11 27,11 42,22 71,27 15,2 23,8 35,13 23,10 171,12 197,0 19,-8 8,-7 29,-12 9,-1 25,-6 33,-12 13,-9 28,-14 38,-23 7,-7 3,-4 11,-10 16,-9 11,-13 20,-21 7,-6 10,-4 15,-12 0,-1 1,-4 1,-5 4,-7 0,-1 4,-7 47,-60 30,-49 44,-80 4,-8 6,-6 11,-13 9,-13 6,-38 10,-52 9,-39 19,3 19,-121 0,-118 -13,-91 -18,-118 -3,-16 -4,-46 -11,-58 -5,-10 -11,-8 -13,-21 -8,-45 -16,-34 -21,-47 -3,-5 -5,-21 -7,-28 -8,-23 -6,-4 -13,-20 -3,-6 -6,-20 -9,-27 -4,-11 -10,-10 -14,-18l-10 -25c-6,-10 -9,-9 -16,-20 -11,-19 -10,-8 -18,-17 -8,-7 0,-12 -14,-22 -8,-7 -11,-12 -16,-21l-24 -32c-7,-9 -4,-4 -12,-10 -10,-8 -6,-10 -17,-18 -9,-7 -12,-12 -20,-18l-46 -32c-21,-6 -1,-7 -17,-17 -15,-10 -6,3 -22,-15 -9,-10 -14,-8 -27,-14 -13,-6 -10,-10 -22,-15 -9,-3 -24,-3 -30,-6 -12,-4 -28,-28 -74,-22 -13,2 -11,3 -14,14z"/>
   <path class="fil0" d="M2206 1836c17,-20 20,-103 -4,-131 -11,-13 -24,-51 -79,-87 -18,-12 -29,-23 -54,-27l-14 15c10,14 11,9 25,17 17,9 54,39 65,53 16,19 20,23 32,48 34,74 -10,134 -75,167l-61 30c-8,5 -19,6 -29,9 -42,11 -4,10 -59,21 -24,5 -34,16 -58,21 -22,4 -26,12 -44,18 -47,16 -24,10 -39,20 -3,1 -10,4 -14,6 -16,10 -40,32 -47,51 -5,17 -3,60 4,73 3,6 5,6 9,11 7,7 3,5 8,12 16,23 63,54 89,67l56 24c29,8 56,22 89,28 25,5 33,15 59,21 16,3 16,7 27,14 12,7 29,9 43,15 8,4 6,5 13,8 6,4 19,7 28,11 10,4 15,9 26,15 10,5 17,7 25,13 31,24 69,52 54,100 -5,17 -21,35 -35,45 -10,7 -14,12 -24,18l-158 115c-21,19 -22,29 -34,45 -12,17 -17,31 -14,61 3,3 7,8 11,13 6,-10 13,-8 16,-22 1,-8 1,-12 4,-18l24 -37c10,-10 8,-14 20,-22 18,-12 31,-27 59,-44l84 -59c9,-8 16,-8 24,-18 9,-11 13,-10 21,-20 12,-14 17,-18 25,-36 16,-36 22,-35 5,-74 -14,-34 -32,-43 -57,-66l-49 -32c-10,-5 -18,-4 -29,-13 -12,-10 -11,-9 -27,-14l-27 -14c-8,-4 -20,-4 -32,-9 -16,-5 -16,-8 -28,-13 -15,-6 -35,-6 -50,-13 -22,-10 -64,-15 -78,-25 -20,-14 -21,-5 -53,-26 -9,-6 -21,-7 -29,-11 -10,-5 -11,-12 -23,-19 -18,-10 -29,-26 -41,-41 -29,-35 -6,-55 6,-72 13,-17 39,-36 60,-43 23,-7 16,-7 26,-15 8,-6 50,-9 66,-16 29,-13 38,-10 64,-19 14,-4 9,-9 28,-13 12,-2 22,-3 31,-7 13,-5 9,-10 26,-16 29,-11 26,-16 39,-22 7,-3 8,-2 14,-7 24,-17 42,-42 60,-64z"/>
   <path class="fil0" d="M1463 794c-1,150 18,113 21,159 1,17 4,41 10,52 18,29 6,11 15,45 4,20 13,21 19,42 12,49 8,14 27,64 5,16 4,10 12,21 9,13 8,24 21,38 8,9 5,8 11,19 4,8 9,9 15,16 5,7 6,12 11,19 6,7 9,7 15,17l23 39c4,6 9,10 14,16 12,15 27,35 42,49l30 31c1,1 11,20 31,23 5,0 3,0 5,-2 17,-14 -3,-22 -11,-33l-84 -93c-9,-9 -5,-7 -11,-18 -5,-10 -8,-8 -14,-17 -4,-6 -6,-12 -10,-18 -19,-25 -18,-28 -24,-36 -5,-7 -8,-6 -12,-16 -14,-29 -18,-24 -23,-36 -4,-10 -2,-13 -9,-21 -6,-8 -8,-5 -13,-17 -3,-8 -3,-15 -7,-22 -4,-9 -8,-7 -12,-17 -7,-13 -7,-30 -15,-44 -13,-22 -35,-131 -38,-168l-4 -22c-11,-61 -8,-90 2,-149 3,-21 5,-69 14,-92 15,-37 13,-52 27,-75 13,-22 10,-31 14,-39 7,-12 14,-7 17,-38 15,-11 14,-8 23,-26l67 -89c13,-16 35,-36 52,-50l41 -38c31,-17 -1,-8 29,-21 15,-7 7,-7 14,-13 5,-6 28,-12 36,-17 7,-6 3,-6 13,-10l34 -19c7,-4 27,-9 36,-14 7,-5 6,-8 14,-12 15,-6 29,-3 42,-12 15,-10 7,-8 39,-14 44,-8 25,-13 35,-17l156 -9c30,1 118,9 140,1 -4,-11 7,-9 -14,-13 -34,-6 -260,-6 -293,3 -13,4 -18,8 -31,10 -16,3 -23,6 -36,9l-116 51c-12,11 -12,8 -26,15l-98 71c-4,5 -3,6 -10,9l-15 9c-20,16 -43,45 -61,65 -7,8 -14,14 -20,22 -5,5 -5,7 -9,12 -10,12 -4,-2 -19,22 -9,16 -3,-3 -26,38 -6,11 -12,14 -16,25 -7,17 -6,14 -15,27 -8,13 -6,17 -12,32 -5,14 -9,12 -14,27 -4,12 -5,22 -8,33 -4,15 -8,12 -14,27 -4,13 -3,28 -4,42 -5,44 -23,6 -23,147z"/>
   <path class="fil0" d="M2123 1151c-21,5 -33,-11 -49,-16 -10,-3 -16,-3 -26,-6 -15,-6 -10,-7 -23,-12 -7,-3 -6,-2 -11,-4l-50 -33c-11,-11 -25,-21 -33,-34l-23 -43c-3,-10 -6,-18 -8,-27 -3,-18 -4,-41 -4,-61 0,-12 15,-92 -21,-54l-5 7c-13,23 -8,77 -4,104 3,15 9,23 14,39 3,11 3,18 8,27 15,29 39,57 68,73l47 24c12,6 10,10 21,15 9,3 20,3 28,7 11,5 7,10 23,15 39,13 28,14 49,22 8,3 19,4 28,7 13,4 15,7 24,11 23,12 83,27 102,43 10,9 19,9 32,20l51 38c8,5 10,12 18,18 21,18 65,60 78,83 6,12 17,19 23,30 10,18 19,29 25,46 5,13 3,12 11,23 10,15 8,38 14,57 14,46 3,114 -8,158 -4,15 -7,14 -12,24 -4,8 -6,18 -9,26 -6,16 -9,11 -16,23 -5,8 -5,15 -11,24l-23 29c-13,18 -44,49 -59,66l-101 79c-8,5 -8,9 -20,15 -18,8 -27,17 -45,26 0,0 -1,0 -1,1l-19 14c-11,8 -11,6 -20,16 10,23 30,16 47,7 0,0 1,0 2,-1l24 -18c0,0 1,0 2,0 0,-1 1,-1 2,-1 0,-1 1,-1 2,-1l28 -19c0,-1 1,-1 2,-1l3 -3c1,0 1,0 2,-1 3,-2 1,-1 4,-4 14,-15 53,-37 63,-47 7,-7 5,-5 14,-12l54 -55c7,-12 5,-6 14,-15 8,-6 5,-9 11,-15 6,-7 8,-5 14,-13 16,-20 25,-39 33,-49 5,-8 10,-10 14,-19l19 -43c5,-11 2,-2 4,-11l7 -45c2,-7 7,-12 9,-20 6,-22 6,-80 1,-101 -5,-23 -12,-7 -13,-39 -2,-39 -13,-54 -25,-86l-30 -50c-11,-15 -32,-33 -38,-45l-25 -27c-7,-7 -8,-7 -14,-13l-44 -40c-6,-4 -8,-8 -14,-13 -24,-20 -101,-58 -104,-60 -27,-19 -20,-1 -57,-26 -11,-7 -25,-8 -39,-13 -10,-4 -8,-6 -16,-11 -7,-4 -15,-4 -19,-10z"/>
   <path class="fil0" d="M2163 2896c1,0 2,0 3,1 2,0 9,2 9,2 18,4 24,7 36,17 32,31 16,13 32,48 4,9 8,9 9,17 7,26 -5,42 -9,57l-3 9c-2,6 -6,12 -10,17 -30,36 -74,47 -116,36 -36,-10 -12,4 -37,-18 -16,-14 -5,3 -19,-21 -2,-3 -3,-5 -5,-7 -7,-9 -7,-4 -11,-17 -12,-43 -6,-74 20,-106l8 -9c35,-36 43,-20 60,-23l33 -3zm118 129c0,-1 1,-4 1,-5l0 -44c-5,-31 -34,-78 -61,-93 -25,-14 -81,-30 -112,-19 -6,2 -42,18 -46,21 -27,23 -16,15 -34,36 -22,25 -20,95 -16,120 2,13 23,51 35,60l5 3c9,6 9,9 19,15 56,29 87,23 137,3 0,0 6,-3 6,-3l13 -10c32,-30 40,-39 53,-84z"/>
   <path class="fil0" d="M1802 2561c17,-4 13,-24 17,-41 3,-15 2,-9 10,-19 6,-6 13,-32 45,-44 16,-6 29,-13 48,-9 45,8 44,16 59,30 12,10 29,42 31,58 4,29 -6,48 -23,69l-32 27c-27,20 -59,47 -67,82 -4,19 10,56 16,70 4,7 51,64 76,72l14 -10c-7,-25 -20,-33 -42,-55 -10,-9 -23,-27 -26,-40 -2,-10 -4,-18 -3,-30 2,-24 23,-41 41,-57 6,-6 12,-9 18,-14l33 -32c8,-13 19,-17 24,-39 5,-18 1,-44 -2,-60 -3,-27 -29,-63 -48,-78 -8,-7 -13,-6 -21,-14 -9,-7 -4,-6 -16,-9 -1,0 -2,0 -3,0 -26,-7 -69,-8 -87,9 -17,15 -18,-3 -53,47 -15,20 -9,3 -20,42 -6,22 1,37 11,45z"/>
   <path class="fil0" d="M1838 303c1,14 4,16 11,23 12,-4 32,-15 38,-23 -5,-10 -5,-11 -14,-17 -18,4 -26,4 -35,17z"/>
   <path class="fil0" d="M2623 1859c12,-3 14,-9 21,-17 9,-13 9,-13 2,-26l-22 0c-10,13 -15,30 -1,43z"/>
   <path class="fil0" d="M2556 1957c9,-3 18,-12 26,-18l0 -24c-29,0 -53,24 -26,42z"/>
   <path class="fil0" d="M1623 562c-16,8 -37,38 -3,36 10,-1 10,-2 13,-6 2,-3 0,2 2,-6 2,-6 6,-23 -4,-26 -12,-4 -8,1 -8,2z"/>
   <path class="fil0" d="M2579 1380c8,-5 8,-6 11,-15 -6,-14 -10,-16 -34,-23l-1 24c8,4 14,11 24,14z"/>
   <path class="fil0" d="M1670 488c11,-3 9,-4 15,-14 5,-9 8,-8 11,-18l-26 -6c-4,7 -8,9 -9,21 0,13 2,12 9,17z"/>
   <path class="fil0" d="M2667 1733c2,-1 5,-3 7,-5l4 -35c-5,-2 -10,-6 -18,0 -4,2 -17,24 7,40z"/>
   <path class="fil0" d="M2650 1484c6,-13 2,-23 -2,-35l-26 1c4,13 6,4 12,19 4,12 2,13 16,15z"/>
   <path class="fil0" d="M2667 1607c3,-2 3,0 7,-7 1,-2 3,-8 3,-11 1,-17 -7,-18 -10,-19 0,0 -10,2 -9,19 0,5 1,6 2,9 1,1 1,2 1,2 1,1 1,2 2,2 2,4 2,3 4,5z"/>
   <path class="fil0" d="M1746 371c8,17 19,16 28,0 -4,-9 -3,-6 -9,-13 -13,3 -14,4 -19,13z"/>
   <path class="fil0" d="M2480 2002c-7,-4 -4,-3 -14,-5l-2 14c12,4 11,2 16,-9z"/>
  </g>
  <path class="fil1" d="M2371 2461c-20,0 -45,2 -66,1 -25,-2 -19,-18 -22,-42 -3,-23 -1,-40 -5,-61 -4,-23 -10,-31 -16,-49 -7,-21 -4,-32 -13,-53 -9,-19 -13,-23 -21,-45 -6,-17 -15,-26 -23,-42 -22,-42 -75,-96 -111,-120 -25,-17 -79,-47 -106,-57 -18,-6 -26,-13 -47,-18 -30,-8 -136,-34 -168,-21 -32,12 -55,44 -45,82 4,19 11,31 27,38 84,38 105,9 155,41 17,11 31,9 48,18 37,20 83,55 110,87 7,8 8,12 14,21l22 43c5,11 6,11 12,19 13,19 8,27 15,51 12,43 22,28 22,105 0,71 -8,44 -42,64 -12,7 3,2 -29,19l-55 39c-10,10 -14,12 -24,20 -47,42 -53,61 -67,75 -15,15 -7,13 -16,32 -9,19 -13,11 -20,29 -4,12 -5,24 -10,35 -6,13 -12,18 -17,31 -12,39 -34,134 -11,176 2,3 1,3 3,7 7,14 6,13 21,21 17,8 23,15 50,11 68,-12 54,-68 56,-111 2,-28 27,-106 39,-126l15 -26c7,-12 44,-54 58,-63 9,-5 5,-1 13,-8 37,-30 16,-10 38,-24 27,-18 85,-38 118,-47 23,-7 41,-10 66,-14 65,-10 89,6 108,-58 8,-28 -5,-41 -15,-59 -11,-19 -32,-21 -61,-21zm-658 -904c10,6 6,7 18,13 17,9 28,12 44,22l95 33c15,5 38,6 49,16 38,36 21,70 33,94 6,11 8,9 14,21 17,34 6,15 25,41 23,31 15,22 47,49l57 40c38,18 27,16 40,23 3,1 20,6 24,7 40,8 109,30 143,14 34,-16 53,-25 53,-68 0,-23 -7,-36 -20,-46 -13,-10 -28,-18 -47,-20 -40,-4 -78,-4 -107,-20 -28,-16 -56,-27 -77,-54 -7,-8 -8,-11 -15,-19 -6,-6 -10,-10 -13,-18 -22,-49 25,-54 57,-60 15,-3 28,-12 47,-20 15,-5 12,-3 23,-12l37 -25c8,-5 9,-8 17,-14l36 -29c28,-23 36,-46 44,-57l25 -37c5,-7 10,-9 14,-17 9,-15 9,-33 19,-46 8,-11 7,-9 13,-23 11,-33 27,-59 29,-67 6,-24 4,-26 14,-48 9,-19 19,-86 18,-114 -1,-41 -32,-61 -73,-55 -33,4 -25,3 -41,25 -8,12 -9,6 -13,22 -8,24 -7,69 -12,85 -7,22 -14,14 -19,44 -7,49 -6,26 -17,47 -9,16 -6,28 -18,44 -7,8 -9,12 -13,22 -16,37 -13,18 -24,38 -13,23 -78,89 -99,96 -34,10 -21,23 -69,24 -24,1 -38,6 -59,7 -26,2 -37,-4 -58,-6 -25,-2 -40,2 -57,-9 -25,-15 -13,-10 -42,-19 -17,-6 -88,-47 -106,-60 -15,-11 -39,-31 -56,-37 -41,-15 -77,23 -81,47 -11,56 39,82 62,100l39 26zm-93 1591c-18,-13 -79,-77 -90,-100l-18 -30c-7,-11 -28,-96 -28,-111l0 -193c0,-37 10,-54 19,-85 7,-28 15,-50 30,-74 5,-9 9,-10 16,-18 17,-18 28,-36 50,-50 16,-10 18,-17 38,-28 17,-10 28,-15 48,-21 82,-21 131,19 168,-52 0,-1 1,-2 1,-2 1,-2 3,-5 4,-7 4,-12 3,-31 -2,-42 -6,-15 -16,-29 -32,-37 -4,-2 -6,-3 -9,-4 -33,-19 -116,-13 -150,-3 -12,4 -16,7 -31,11 -39,10 -25,6 -54,25 -15,9 -16,6 -38,21 -5,3 -8,4 -13,7 -15,9 -9,8 -31,8 -13,0 -14,-12 -14,-25l0 -1149c0,-39 14,-109 32,-141 23,-39 70,-101 117,-108 50,-8 58,17 96,16 24,0 57,-27 65,-47 6,-13 14,-21 9,-43 -17,-72 -85,-76 -150,-77 -22,0 -78,14 -97,20 -25,8 -72,50 -72,-3l0 -615c0,-45 0,-73 22,-116 9,-16 30,-39 46,-47 37,-22 98,-38 155,-21 29,8 66,15 95,25l47 22c15,5 22,6 34,14 17,10 10,7 31,14 19,5 19,10 32,17 13,7 17,9 29,16 -19,40 -29,30 -56,56 -15,14 -37,26 -60,50 -11,12 -15,16 -26,29l-23 32c-8,16 -14,15 -22,33 -17,34 -18,77 8,99 42,36 73,25 110,-12 11,-11 9,-9 17,-24 8,-16 42,-51 55,-66 29,-30 63,-49 101,-65 28,-11 30,-12 68,-12 47,0 53,6 92,23 22,11 44,36 60,54l23 36c15,20 32,106 32,133 0,26 1,54 -9,73 -30,55 -71,18 -144,51l-48 17c-16,6 -26,14 -41,21 -43,23 -127,102 -146,144 -7,16 -2,7 -12,19 -10,12 -12,28 -21,41 -7,10 -8,6 -13,21 -3,7 -5,16 -7,24 -5,17 -14,26 -18,44 -13,57 -22,158 -3,211 6,15 10,15 21,23 20,16 24,25 67,17 14,-2 17,-7 26,-15 47,-36 13,-119 36,-192 5,-17 10,-48 17,-62 9,-13 17,-38 28,-51 31,-38 68,-71 110,-94 25,-13 17,-16 53,-27 37,-10 25,-20 97,-20 99,0 88,13 164,30 19,4 16,6 30,14 14,9 20,5 33,13 11,6 10,12 25,19 25,12 52,42 65,67 34,62 21,26 35,96 12,63 18,48 18,131 0,70 -33,139 -9,171 11,15 15,32 27,48 7,9 7,15 12,27 3,9 7,22 11,29 13,22 23,57 33,82 7,19 9,47 14,65 9,38 8,111 1,147 -2,14 -5,17 -8,30 -9,33 -7,23 -22,50 -18,35 -53,77 -89,94 -31,15 -60,42 -93,51 -21,6 -33,19 -51,22 -92,18 -41,2 -115,34 -32,14 -33,80 -8,102 37,30 63,25 112,9 20,-6 39,-8 59,-13 17,-5 34,-16 50,-23l53 -23c22,-6 31,-15 46,-26 10,-7 16,-8 25,-13 15,-10 30,-24 50,-6 14,12 13,36 20,52 5,11 10,18 12,26 11,60 -8,135 -29,188 -18,43 -29,49 -41,72 -20,36 -52,71 -87,93 -8,6 -16,9 -25,13 -15,7 -38,11 -47,25 -2,3 -12,21 -12,22 -11,26 22,139 2,220 -5,21 -16,40 -21,62 -6,24 -5,14 -15,30 -6,9 -7,18 -13,28 -17,25 -35,52 -55,73l-42 41c-9,6 -16,10 -24,18 -14,13 -34,21 -52,30 -29,13 -80,3 -109,19 -10,5 -18,9 -25,16 -21,22 -26,60 -55,111 -16,28 -57,69 -82,87 -49,36 -135,54 -196,54l-7 0c-57,0 -111,-11 -166,-25l-68 -24c-12,-5 -18,-12 -30,-19 -9,-5 -21,-12 -28,-17z"/>
 </g>
</svg>
