<svg xmlns="http://www.w3.org/2000/svg" viewBox="0 0 203.61 62.93"><defs><style>.cls-1,.cls-2{fill:#00445f;}.cls-2{font-size:9px;font-family:Roboto-Bold, Roboto;font-weight:700;letter-spacing:0.02em;}.cls-3{letter-spacing:0.01em;}.cls-4{letter-spacing:0.01em;}</style></defs><g id="Minverva"><path class="cls-1" d="M174,6.93a31.46,31.46,0,1,0,31.46,31.46A31.5,31.5,0,0,0,174,6.93ZM174,69a30.59,30.59,0,1,1,30.58-30.59A30.62,30.62,0,0,1,174,69Z" transform="translate(-1.83 -6.93)"/><path class="cls-1" d="M192.44,36c-.44-.92-.14-1.51-.27-2.18a33,33,0,0,0-1.29-3.23c-.22-.52,1.13-.4.13-2.3,0-.06,1.39-.58,0-1.65a8,8,0,0,1-1.79-2,.32.32,0,0,1,0-.39,1.32,1.32,0,0,0-.05-2.25c-.62-.38-1.34,0-2,.43-.22.14-.33.23-.56.14s-.34-.21-.54-.34a2.34,2.34,0,0,0,.91-1.7,4.34,4.34,0,0,0-3,.3l-.11-.07a2.16,2.16,0,0,0,.25-2.07h0a23.83,23.83,0,0,1,3.7-4l0,0c.08-.08.11-.17,0-.27a3,3,0,0,0-.32-.18,27.67,27.67,0,0,0-41.09,24.18A28.29,28.29,0,0,0,158.13,61a4.65,4.65,0,0,0,.83.49.27.27,0,0,0,.32-.06l.11-.15a.4.4,0,0,0,.1-.25c0-.2-.29-.38-.64-.89a8.31,8.31,0,0,1-1.42-4.54,6.53,6.53,0,0,1,1.36-4.08c1.1,1.15,3.51,3.26,3.46,5.19-.06,2.16-2.08,2-1.65,3.67.28,1,1,.6,1.17,1.37a3,3,0,0,0,2.81,2.07c.19,0,.35.13.72.51.54.55,1.85.47,2.43.37s1.26.4,2.42.27c1.45-.16,1.82-.27,2.44-.28a74.89,74.89,0,0,1,10.81.54c.7.11.92-.21.6-.76a8.53,8.53,0,0,1-.82-7.47,9.43,9.43,0,0,0,6.49-1.2A3.4,3.4,0,0,0,191.19,53a6.92,6.92,0,0,1-.15-2c.22-.81.38-.8.61-1,1.09-.76.3-1.37.14-1.43a1,1,0,0,0,.31-1.37c-.2-.21-.79-1.87-.11-2.21s1.57-.53,2.42-.9a1.37,1.37,0,0,0,.71-1.82C194.72,41.2,192.51,36.13,192.44,36ZM161.91,60.61c-.21,0-.89.06-.74-.83.1-.55.69-.78,1-.47C162.1,59.74,162,60.16,161.91,60.61ZM188,22.86c.36-.22.74-.32,1-.1.78.78-.85,1.22-.51,1.81a9.13,9.13,0,0,0,2.23,2.52c.37.29.43.93-1,1.22s-7.08,1.79-10.06,4.95c-3.74,4-6.12,9.09-6.44,8.39s-1.08-.83-1-1C177.59,31.37,186,24.11,188,22.86Zm2.46,6.5c-.31.88-2.75,1.67-2.63,1.05.05-.28,0-.65.19-.68s1-.32,2.24-.63C190.36,29.07,190.52,29.14,190.44,29.36ZM184.26,31c-.06-.36,2.56-1.24,2.65-1,.17.48-.54,1.77-1.42,2.1s-1.41.26-1.37.11A4.38,4.38,0,0,0,184.26,31Zm-6.09,13.67c-1.2.74-1.85-.68-2-.92a1.24,1.24,0,0,1-.16-1,7.28,7.28,0,0,0-.12-2.79c-.12-.79,1.52-2.75,1.89-3.09s.94.17,1,.75a2.37,2.37,0,0,1-1.18,2.16c-.77.57-.92,1.32-.77,1.53s.4.08.55-.25c.47-1,1.81-1.49,2-2a2.66,2.66,0,0,0,.06-1.67c0-.3.26-.38.48-.34s.41.42.55.8c.87,2.25-1.31,3.61-1.66,4.14C178.61,42.22,179.11,44.05,178.17,44.63ZM180,35.91c-.64.44-1.58-.16-1.39-.42A13,13,0,0,1,182,32.18c1-.64,1.14-.68,1.19-.32a3.12,3.12,0,0,1-.78,2.25,2.49,2.49,0,0,1-1.74.77C180.48,34.93,180.49,35.57,180,35.91Zm-5.77,7.67c-.3-.06-.41-.64-.35-.87a9,9,0,0,1,1.2-1.93c.07-.09.22,0,.23.1C175.47,42.11,175.3,43.82,174.22,43.58Zm9.64-22.21a5.28,5.28,0,0,1,2.24-.48c.25,0-.54,1.44-2,2a6.32,6.32,0,0,1-2.67.68C181.29,23.52,182.71,21.89,183.86,21.37Zm-25,23.45a2.41,2.41,0,0,0-.87-.74A6.68,6.68,0,0,0,157,46.76a19.07,19.07,0,0,1-2.25-8.37c-.41-10.61,8.47-19.15,19.31-19.11a17.22,17.22,0,0,1,6.73,1.36,7.76,7.76,0,0,0-1.1,2c0-.57-.17-1-.12-1.38s-1.54.27-2.93,2.48a5.26,5.26,0,0,0-.64,1.6,3.43,3.43,0,0,0-.28-1.46,4.81,4.81,0,0,0-2.55,2.62,5.86,5.86,0,0,0-.33,1,2,2,0,0,0-.27-1A4.72,4.72,0,0,0,170,29.22a5.09,5.09,0,0,0-.34,1.37c-.15-.69-.41-1.11-.5-1-.57.72-1.69,1-2.28,2.88a4.37,4.37,0,0,0-.21,1.26c-.24-.62-.59-1-.67-1a6.09,6.09,0,0,0-2.1,3.26,4.88,4.88,0,0,0,0,1.72,7.91,7.91,0,0,1-.93-1.43,4.61,4.61,0,0,0-1.74,3.21,6.47,6.47,0,0,0,.22,1.83,2.4,2.4,0,0,0-1.22-1.22,5.46,5.46,0,0,0-1.45,3.3A3.89,3.89,0,0,0,158.9,44.82Zm22.2-23.88a5.39,5.39,0,0,1,2.47-1.72,3.86,3.86,0,0,1-1.18,2.58,9.81,9.81,0,0,1-2.58,1.83A6,6,0,0,1,181.1,20.94Zm-2.77,3.91a6.6,6.6,0,0,0-1.68,1.9c-.17.27-.57-1.49.51-3.18a5.64,5.64,0,0,1,1.94-1.83C179,22.15,179.74,23.71,178.33,24.85Zm-3,2.25c-1,1.51-1.07,1-2.18,2.47a7.31,7.31,0,0,1,.31-2.81,5,5,0,0,1,1.87-2.25A3.07,3.07,0,0,1,175.3,27.1Zm-3.32,3c-.52.91-1,.7-1.86,2-.1.15-.33-1.06.19-2.7a3.91,3.91,0,0,1,1.77-2.07C172.28,27.29,172.6,29,172,30.12Zm-3.09,3.2a5.79,5.79,0,0,1-1.49,1.92c-.1.12-.57-1.1-.12-2.64a4.4,4.4,0,0,1,1.58-2.1C169,30.34,169.45,32.1,168.89,33.32Zm-2.51,2a2.74,2.74,0,0,1-.15.9,6.44,6.44,0,0,1-1.56,2.44,4,4,0,0,1-.48-1.76,4.46,4.46,0,0,1,1.56-3.33C166,33.54,166.38,34.5,166.38,35.3Zm-2.56,3.84a4.56,4.56,0,0,1-1.52,3.24,5.16,5.16,0,0,1-.66-2.27,3.43,3.43,0,0,1,1.06-2.92C162.86,37.73,163.83,38.16,163.82,39.14ZM160.2,41a2.74,2.74,0,0,1,1.22,2.45,3.48,3.48,0,0,1-1.36,2.83c-.28-1.09-.81-1.32-.8-2.4A5.53,5.53,0,0,1,160.2,41Zm2.18,3.76a5.89,5.89,0,0,1,2.93-.45,3.85,3.85,0,0,1-1.77,2.47,4.43,4.43,0,0,1-3,.6A3.59,3.59,0,0,1,162.38,44.78Zm-.11-1a4.44,4.44,0,0,1,2.13-2.51h0a5.53,5.53,0,0,1,2.8-.44c.16.07-.51,1.67-1.74,2.26C164.08,43.74,163.52,43.36,162.27,43.77Zm2.06-3.54a6.38,6.38,0,0,1,2.23-2.48,5.32,5.32,0,0,1,2.66-.4,3.72,3.72,0,0,1-1.86,2.28A5.56,5.56,0,0,1,164.33,40.23ZM167,36.65a7,7,0,0,1,2.51-2.47,4.6,4.6,0,0,1,2.51-.31,3.47,3.47,0,0,1-1.93,2.24A7.1,7.1,0,0,1,167,36.65Zm3.21-3.54a5,5,0,0,1,2.22-2.35,4.81,4.81,0,0,1,2.66,0c.28,0-.4,1.35-2,1.94A6.26,6.26,0,0,1,170.21,33.11Zm3.59-3.42a6.22,6.22,0,0,1,2.44-2.18,5.41,5.41,0,0,1,2.74-.07c.16.07-.82,1.53-2.32,2A6.71,6.71,0,0,1,173.8,29.69Zm3.64-3c-.16-.11,1.27-1.71,2.44-2.16a5.16,5.16,0,0,1,2.48-.29,4,4,0,0,1-2.13,2A5.39,5.39,0,0,1,177.44,26.74ZM157.56,59.47A27.14,27.14,0,0,1,147.2,38.39a26.79,26.79,0,0,1,39.2-23.72.12.12,0,0,1,0,.2,27.44,27.44,0,0,0-3,3.42A21.83,21.83,0,0,0,174,16.2a22.21,22.21,0,0,0-22.19,22.19,21.61,21.61,0,0,0,5.34,14.44,7.23,7.23,0,0,0-.56,2.82A7.7,7.7,0,0,0,157.56,59.47Zm0-7.45h0a20.75,20.75,0,0,1-4.92-13.64A21.33,21.33,0,0,1,182.85,19a6.65,6.65,0,0,0-1.23.78A19.06,19.06,0,0,0,174,18.26a20.16,20.16,0,0,0-20.14,20.13A19.24,19.24,0,0,0,158.29,51Zm1.06-1.67a4.05,4.05,0,0,1-1.31-2.5c0-.06,0-.12,0-.18a5.66,5.66,0,0,1,.71-2.7c.15-.14,1.6,1,1.62,2.61A4.27,4.27,0,0,1,158.66,50.35Zm2.41-2.16a5,5,0,0,1,2.79-.34A4.81,4.81,0,0,1,162,50.26a3.78,3.78,0,0,1-2.63.39C160.07,49.88,159.93,48.74,161.07,48.19Zm1.56,13.92a3.27,3.27,0,0,1,.15-2.17c.52-.25,1.47-.35,1.49,0a8.23,8.23,0,0,0,.09,3.06C164.26,63.18,163,63.08,162.63,62.11Zm.09-3.31c-.1-.6.47-1.17.46-2.46,0-1.6-2-3.78-3.31-5.18a5.8,5.8,0,0,0,2.36-.57,4.72,4.72,0,0,0,2.42-3.11,2.83,2.83,0,0,0-1.11-.14l.22-.11a4.71,4.71,0,0,0,2.35-3.33,5,5,0,0,0-1.2-.08c.19-.06.39-.14.59-.22A4.32,4.32,0,0,0,168,40.44a3.38,3.38,0,0,0-1-.13,5.25,5.25,0,0,0,.55-.25A4.63,4.63,0,0,0,170,37a3.31,3.31,0,0,0-1-.12,7.27,7.27,0,0,0,1.35-.44,4.32,4.32,0,0,0,2.56-2.87,2.67,2.67,0,0,0-.89-.17,12.76,12.76,0,0,0,1.31-.37A4.17,4.17,0,0,0,176,30.43c-.27,0-.64-.16-1.11-.24a7.84,7.84,0,0,0,2-.4c2.14-.73,2.9-2,2.94-2.57a1.54,1.54,0,0,0-.67-.24,7.06,7.06,0,0,0,1.39-.38,5.62,5.62,0,0,0,2.89-2.94,8.68,8.68,0,0,0,1.17-.45,3.81,3.81,0,0,0,.57-.3c.1.08.26.19.49.34s.41.24.26.37a76.28,76.28,0,0,0-14.13,16.67c-.06.1-.17.08-.36.07-2.39-.16-3.74,2.68-2.67,5.33a6,6,0,0,1-1.35,1.66c-.09.08-.31.41.07.38.56,0,1.27-.94,1.61-1.35.14.18.66.62.41.86a19.41,19.41,0,0,1-4.18,3.14c-.76.37,1.26.62,4.71-2.49.2-.19.44.72.75,1.1-.59,2,.87,5.73.64,6.91a.87.87,0,0,1-.85.81c-3.42.07-3.75-.09-5.49.42-.81.24-.6.78,0,.62s1.37-.45,5.06-.22c.91,0,1.94-.19,1.95-1.71s-1.1-5.51-.72-6.08a1.94,1.94,0,0,0,1,.42c0,1.35,2.12,5.69,1.15,8.09-.36.89-1.93.83-4.62.56C164.3,58.36,162.81,59.35,162.72,58.8Zm10.52,3a1.68,1.68,0,0,1-2.19-1.92c.17-.27,1.3.31,2.17-.26C173.9,59.15,174.27,61.4,173.24,61.76Zm-8.09,1.3c-.25-1.11-.35-3,.11-3.44.09-.09,1.46-.28,1.44,0-.11,1.32-.64,2.79.36,4.25C167.44,64.45,165.49,64.54,165.15,63.06Zm3.4,1.26c-.48-.12-1.8-2.22-.72-4.73.11-.27,1.76-.1,2,0s-.22,2.06,2,2.93C172.13,62.59,171.89,65.14,168.55,64.32Zm14.16-7c-.77,2.65-1.15,3.71,0,6.58.15.39.26.68-.07.62-2.32-.4-2.82-.78-10.08-.16-.53,0,.17-1,.08-1.74a2.06,2.06,0,0,0,2-1.47c.27-1.31-.64-2.27-.54-2.46,1-2-.07-4.24-.94-8-.08-.35.12-.5.27-.34,4.67,5.06,7.65,6.06,9.26,6.54C182.8,57,182.76,57.14,182.71,57.31Zm11.94-13.8c-1,.86-2.47.93-3.08,1.48-.32.29-.46.74-.12,1.55.2.47.33.53-.34.7-1.08.29-1.23,1.72-2.62,1.46-.55-.1-.15.25,0,.27a1.5,1.5,0,0,0,1.38-.41,3.91,3.91,0,0,1,1.07-.89c.44-.16.89-.15.89.18s-.54.64-.78.75c.29.15,1.15.59.41,1.09-.57.39-1.37-.15-1.48-.22s-.5,0-.39.09c.43.52,1.58.38,1.37.66-1.06,1.43-.2,2.26-.52,3.69s-2.31,2.25-3.84,2.52c-5.21.94-10.27-3.48-13.23-6.82.27-.63.23-1.46,0-1.17s-.21.74-.83.9c-1.19.3-1.7-1.77-2.07-2.13A4.46,4.46,0,0,1,169.32,42a1.92,1.92,0,0,1,3.41-.35c.9,1.34.49,2.09,1,2.49a1.52,1.52,0,0,0,1.64,0c.54-.15.5,1.3,2.37,1.23s1.78-3.2,2.07-3.48c2.58-2.51,1.26-4.76.79-5.28-.12-.14.29-1.06.44-1.1a3.91,3.91,0,0,0,2.83-2.32s2.52,0,3.41-1.86c.24-.48,1,.47,2.67-.85a.25.25,0,0,1,.43.09c1.08,2.65,1.54,3.38,1.46,4.73-.06,1,2.62,6.44,2.81,6.91S194.9,43.29,194.65,43.51Z" transform="translate(-1.83 -6.93)"/><path class="cls-1" d="M188.6,33.91c-1.47.05-3.17,1.85-3.73,2.1s-.37.42,0,.3c.73-.27,1.77-1.38,3.2-1.9,1.14-.41,1.06.52,1.49.47C189.73,34.86,189.44,33.88,188.6,33.91Z" transform="translate(-1.83 -6.93)"/><path class="cls-1" d="M188.93,35.34c-.12,0,.12.66-.51.7-1.38.08-2.47,1.39-3.31,1.78a4.55,4.55,0,0,1-1.14.42.09.09,0,0,0,0,.18c3.52.47,4.86.34,4.89.22s-.19-.37-.14-.52a3.21,3.21,0,0,0,0-1.64c-.07-.24.52-.08.52-.41C189.31,35.9,189.13,35.3,188.93,35.34Zm-.54,2.78c-.07.27-1.64.15-2.49.07-.2,0-.54,0,.11-.44a6.32,6.32,0,0,1,2.13-1,.21.21,0,0,1,.26.18A2.72,2.72,0,0,1,188.39,38.12Z" transform="translate(-1.83 -6.93)"/><path class="cls-1" d="M193,43.12a6.12,6.12,0,0,0-1.75.75c-.24.15-1.34.82-1.26-.25,0-.37.27-1.31.27-1.56s-.32-.23-.33,0a9.87,9.87,0,0,1-.23,1.58.74.74,0,0,0,1.1.82,8.8,8.8,0,0,1,2.17-1C193.12,43.4,193.16,43.12,193,43.12Z" transform="translate(-1.83 -6.93)"/><path class="cls-1" d="M172.63,47c-.2-.07-.15.36-.43.31s-.06-.4-.54-.9c-.23-.25-.83-.36-1.28-1.07-.7-1.12-.09-3.61.93-3.25.57.19.47,1.52.3,2.41-.11.55.75.83.83.63s-.32-.29-.42-.59c-.16-.45,1-2.27-.53-2.8-1.15-.38-1.91,1.07-1.77,2.68a2.36,2.36,0,0,0,1.53,2.1c.7.26.17,1.21,1.11,1.22C172.77,47.69,172.86,47,172.63,47Z" transform="translate(-1.83 -6.93)"/><path class="cls-1" d="M181.86,16.94a.15.15,0,0,0,.14,0L184,14.43a.13.13,0,0,0,0-.19l-.33-.13a.12.12,0,0,0-.14,0l-2,2.47a.13.13,0,0,0,.05.2Z" transform="translate(-1.83 -6.93)"/><path class="cls-1" d="M178.24,15.93l.34.07a.12.12,0,0,0,.13-.08l1.15-2.82a.14.14,0,0,0-.09-.17l-.38-.08a.07.07,0,0,0-.08.05c-.15.36-.94,2.32-1.16,2.87A.11.11,0,0,0,178.24,15.93Z" transform="translate(-1.83 -6.93)"/><path class="cls-1" d="M174.22,15.54h.34a.11.11,0,0,0,.12-.11l.28-3a.11.11,0,0,0-.11-.13h-.35a.13.13,0,0,0-.12.11l-.28,3A.13.13,0,0,0,174.22,15.54Z" transform="translate(-1.83 -6.93)"/><path class="cls-1" d="M170.31,15.83l.34-.05a.14.14,0,0,0,.1-.15l-.57-3a.13.13,0,0,0-.14-.1l-.34.05a.13.13,0,0,0-.1.15l.57,3A.12.12,0,0,0,170.31,15.83Z" transform="translate(-1.83 -6.93)"/><path class="cls-1" d="M166.32,16.74a.12.12,0,0,0,.15.06l.32-.11a.12.12,0,0,0,.07-.17l-1.35-2.71a.11.11,0,0,0-.15-.06l-.32.11A.13.13,0,0,0,165,14Z" transform="translate(-1.83 -6.93)"/><path class="cls-1" d="M162.59,18.47a.12.12,0,0,0,.15,0l.31-.17a.12.12,0,0,0,0-.18l-2-2.32a.14.14,0,0,0-.16,0l-.3.18a.12.12,0,0,0,0,.18Z" transform="translate(-1.83 -6.93)"/><path class="cls-1" d="M159.13,20.91a.12.12,0,0,0,.14,0l.28-.23a.12.12,0,0,0,0-.19L157,18.71a.12.12,0,0,0-.15,0l-.26.23a.12.12,0,0,0,0,.19Z" transform="translate(-1.83 -6.93)"/><path class="cls-1" d="M156.11,24a.12.12,0,0,0,.14,0c.07-.1.15-.19.22-.28a.12.12,0,0,0-.05-.19l-2.94-1.15a.14.14,0,0,0-.14,0l-.21.29a.11.11,0,0,0,.05.18Z" transform="translate(-1.83 -6.93)"/><path class="cls-1" d="M150.55,27.24l3.15.44a.14.14,0,0,0,.13-.06,3.24,3.24,0,0,1,.17-.32.12.12,0,0,0-.09-.18l-3.17-.44a.11.11,0,0,0-.12.06c-.06.11-.11.22-.16.33A.12.12,0,0,0,150.55,27.24Z" transform="translate(-1.83 -6.93)"/><path class="cls-1" d="M148.83,32l3.21-.31a.11.11,0,0,0,.1-.09l.12-.35a.13.13,0,0,0-.13-.16l-3.23.31a.13.13,0,0,0-.11.09l-.09.36A.12.12,0,0,0,148.83,32Z" transform="translate(-1.83 -6.93)"/><path class="cls-1" d="M151.26,35.84c0-.13,0-.25.05-.38a.12.12,0,0,0-.16-.13L148,36.42a.14.14,0,0,0-.09.11c0,.12,0,.25,0,.37a.12.12,0,0,0,.16.12l3.11-1.08A.11.11,0,0,0,151.26,35.84Z" transform="translate(-1.83 -6.93)"/><path class="cls-1" d="M151.19,40.11l0-.38a.12.12,0,0,0-.19-.1l-2.83,1.86a.13.13,0,0,0-.06.12c0,.13,0,.25,0,.38a.12.12,0,0,0,.19.08l2.81-1.85A.11.11,0,0,0,151.19,40.11Z" transform="translate(-1.83 -6.93)"/><path class="cls-1" d="M151.9,44.39c0-.13-.07-.26-.1-.39a.12.12,0,0,0-.21-.06l-2.31,2.54a.12.12,0,0,0,0,.13l.12.36a.12.12,0,0,0,.21,0l2.28-2.51A.11.11,0,0,0,151.9,44.39Z" transform="translate(-1.83 -6.93)"/><path class="cls-1" d="M153.08,48.18l-1.63,3.1a.13.13,0,0,0,0,.12l.21.34a.12.12,0,0,0,.21,0l1.61-3.07a.11.11,0,0,0,0-.11l-.19-.37A.12.12,0,0,0,153.08,48.18Z" transform="translate(-1.83 -6.93)"/><path class="cls-1" d="M155.37,51.66a.13.13,0,0,0-.22.05l-.87,3.59a.14.14,0,0,0,0,.11c.09.11.19.21.28.31a.12.12,0,0,0,.21,0l.86-3.55a.12.12,0,0,0,0-.1Z" transform="translate(-1.83 -6.93)"/></g><g id="IMPRS_Master_1-line" data-name="IMPRS Master_1-line"><g id="editable_Subline_1-line" data-name="editable Subline 1-line"><text class="cls-2" transform="translate(36.92 34.87)">for B<tspan class="cls-3" x="20.48" y="0">r</tspan><tspan x="23.81" y="0">ain and Beh</tspan><tspan class="cls-4" x="73.11" y="0">a</tspan><tspan x="78.05" y="0">vior</tspan></text></g><g id="IMPRS_Lettering" data-name="IMPRS Lettering"><path class="cls-1" d="M24.77,53.05h-.45V47.72h.45Z" transform="translate(-1.83 -6.93)"/><path class="cls-1" d="M30.41,53.05H30l-3.07-4.56v4.56h-.45V47.72h.45L30,52.29V47.72h.45Z" transform="translate(-1.83 -6.93)"/><path class="cls-1" d="M35.5,48.1H33.67v4.95h-.45V48.1H31.4v-.38h4.1Z" transform="translate(-1.83 -6.93)"/><path class="cls-1" d="M39.53,50.5H37v2.17H39.9v.38H36.59V47.72h3.3v.38H37v2h2.49Z" transform="translate(-1.83 -6.93)"/><path class="cls-1" d="M43.07,50.83H41.52v2.22h-.45V47.72H42.8a2,2,0,0,1,1.33.41,1.45,1.45,0,0,1,.48,1.16,1.44,1.44,0,0,1-.3.9,1.55,1.55,0,0,1-.8.54L44.84,53v0h-.48Zm-1.55-.38H42.9a1.29,1.29,0,0,0,.91-.32,1.12,1.12,0,0,0,.35-.84,1.1,1.1,0,0,0-.36-.88,1.47,1.47,0,0,0-1-.31H41.52Z" transform="translate(-1.83 -6.93)"/><path class="cls-1" d="M50,53.05h-.45l-3.06-4.56v4.56h-.46V47.72h.46l3.07,4.57V47.72H50Z" transform="translate(-1.83 -6.93)"/><path class="cls-1" d="M54.56,51.55H52.14l-.55,1.5h-.48l2-5.33h.43l2,5.33h-.47Zm-2.28-.38h2.13l-1.06-2.9Z" transform="translate(-1.83 -6.93)"/><path class="cls-1" d="M59.73,48.1H57.91v4.95h-.45V48.1H55.63v-.38h4.1Z" transform="translate(-1.83 -6.93)"/><path class="cls-1" d="M61.37,53.05h-.45V47.72h.45Z" transform="translate(-1.83 -6.93)"/><path class="cls-1" d="M67,50.67a3.08,3.08,0,0,1-.25,1.3,1.92,1.92,0,0,1-1.82,1.16,1.91,1.91,0,0,1-1.51-.67,2.71,2.71,0,0,1-.58-1.81V50.1a3.13,3.13,0,0,1,.26-1.29,1.92,1.92,0,0,1,1.82-1.16,2.09,2.09,0,0,1,1.09.29,2,2,0,0,1,.72.84A3.07,3.07,0,0,1,67,50Zm-.45-.57a2.34,2.34,0,0,0-.43-1.51A1.45,1.45,0,0,0,64.9,48a1.41,1.41,0,0,0-1.18.55,2.33,2.33,0,0,0-.45,1.53v.55a2.38,2.38,0,0,0,.44,1.51,1.45,1.45,0,0,0,1.2.55,1.42,1.42,0,0,0,1.19-.54,2.42,2.42,0,0,0,.43-1.53Z" transform="translate(-1.83 -6.93)"/><path class="cls-1" d="M72.31,53.05h-.45L68.8,48.49v4.56h-.46V47.72h.46l3.06,4.57V47.72h.45Z" transform="translate(-1.83 -6.93)"/><path class="cls-1" d="M76.83,51.55H74.41l-.55,1.5h-.47l2-5.33h.43l2,5.33h-.47Zm-2.28-.38h2.14l-1.07-2.9Z" transform="translate(-1.83 -6.93)"/><path class="cls-1" d="M79.32,52.67H82v.38H78.86V47.72h.46Z" transform="translate(-1.83 -6.93)"/><path class="cls-1" d="M85.69,47.72l2,4.71,2-4.71h.6v5.33h-.45V50.73l0-2.38-2,4.7h-.35l-2-4.68,0,2.35v2.33h-.45V47.72Z" transform="translate(-1.83 -6.93)"/><path class="cls-1" d="M94.75,51.55H92.33l-.55,1.5h-.47l2-5.33h.43l2,5.33H95.3Zm-2.28-.38h2.14l-1.07-2.9Z" transform="translate(-1.83 -6.93)"/><path class="cls-1" d="M98.4,50l1.5-2.26h.54l-1.76,2.63,1.82,2.7H100L98.4,50.72l-1.56,2.33h-.53l1.82-2.7-1.77-2.63h.54Z" transform="translate(-1.83 -6.93)"/><path class="cls-1" d="M104.09,50.88v2.17h-.45V47.72h1.82a1.93,1.93,0,0,1,1.31.42,1.5,1.5,0,0,1,.48,1.17,1.46,1.46,0,0,1-.46,1.16,2,2,0,0,1-1.34.41Zm0-.38h1.37a1.44,1.44,0,0,0,1-.31,1.12,1.12,0,0,0,.34-.87,1.15,1.15,0,0,0-.34-.88,1.39,1.39,0,0,0-1-.34h-1.4Z" transform="translate(-1.83 -6.93)"/><path class="cls-1" d="M108.94,52.67h2.63v.38h-3.08V47.72h.45Z" transform="translate(-1.83 -6.93)"/><path class="cls-1" d="M115.61,51.55h-2.42l-.55,1.5h-.47l2-5.33h.42l2,5.33h-.47Zm-2.28-.38h2.14l-1.07-2.9Z" transform="translate(-1.83 -6.93)"/><path class="cls-1" d="M121.61,53.05h-.45l-3.07-4.56v4.56h-.45V47.72h.45l3.07,4.57V47.72h.45Z" transform="translate(-1.83 -6.93)"/><path class="cls-1" d="M127,51.39a1.82,1.82,0,0,1-2,1.74,1.89,1.89,0,0,1-1-.3,1.94,1.94,0,0,1-.7-.84,2.89,2.89,0,0,1-.25-1.24v-.7a3.15,3.15,0,0,1,.24-1.26A1.92,1.92,0,0,1,124,48a2,2,0,0,1,1.08-.3,1.89,1.89,0,0,1,1.35.46,2,2,0,0,1,.58,1.28h-.46A1.35,1.35,0,0,0,125,48a1.41,1.41,0,0,0-1.16.54,2.33,2.33,0,0,0-.43,1.5v.65a2.34,2.34,0,0,0,.42,1.47,1.34,1.34,0,0,0,1.13.55,1.54,1.54,0,0,0,1.07-.33,1.61,1.61,0,0,0,.44-1Z" transform="translate(-1.83 -6.93)"/><path class="cls-1" d="M129.49,50.4l-.75.74v1.91h-.45V47.72h.45v2.87l2.73-2.87H132l-2.24,2.37,2.41,3h-.55Z" transform="translate(-1.83 -6.93)"/><path class="cls-1" d="M61.86,58.83H60.31v2.22h-.46V55.72h1.73a2,2,0,0,1,1.34.41,1.45,1.45,0,0,1,.48,1.16,1.44,1.44,0,0,1-.3.9,1.54,1.54,0,0,1-.81.54L63.62,61v0h-.48Zm-1.55-.38h1.38a1.29,1.29,0,0,0,.91-.32,1.23,1.23,0,0,0,0-1.72,1.44,1.44,0,0,0-1-.31H60.31Z" transform="translate(-1.83 -6.93)"/><path class="cls-1" d="M67.94,58.5H65.45v2.17h2.87v.38H65V55.72h3.3v.38H65.45v2h2.49Z" transform="translate(-1.83 -6.93)"/><path class="cls-1" d="M72.66,59.74a.86.86,0,0,0-.31-.7,3.28,3.28,0,0,0-1.14-.49A4.19,4.19,0,0,1,70,58a1.23,1.23,0,0,1,0-2,2.06,2.06,0,0,1,1.29-.38,2.1,2.1,0,0,1,1,.2,1.58,1.58,0,0,1,.65.57,1.56,1.56,0,0,1,.23.82h-.45a1.13,1.13,0,0,0-.38-.88,1.45,1.45,0,0,0-1-.33,1.63,1.63,0,0,0-1,.27.85.85,0,0,0-.36.71.8.8,0,0,0,.33.67,3,3,0,0,0,1,.45,4.93,4.93,0,0,1,1.09.41,1.62,1.62,0,0,1,.56.5,1.31,1.31,0,0,1,.18.69,1.21,1.21,0,0,1-.5,1,2.12,2.12,0,0,1-1.33.39,2.5,2.5,0,0,1-1-.21,1.58,1.58,0,0,1-.72-.56,1.47,1.47,0,0,1-.24-.83h.45a1.08,1.08,0,0,0,.42.89,1.75,1.75,0,0,0,1.12.32,1.67,1.67,0,0,0,1-.27A.87.87,0,0,0,72.66,59.74Z" transform="translate(-1.83 -6.93)"/><path class="cls-1" d="M77.4,58.5H74.91v2.17h2.87v.38H74.46V55.72h3.3v.38H74.91v2H77.4Z" transform="translate(-1.83 -6.93)"/><path class="cls-1" d="M82,59.55H79.56L79,61.05h-.47l2-5.33H81l2,5.33h-.47Zm-2.28-.38h2.14l-1.07-2.9Z" transform="translate(-1.83 -6.93)"/><path class="cls-1" d="M86.15,58.83H84.6v2.22h-.45V55.72h1.73a2,2,0,0,1,1.33.41,1.45,1.45,0,0,1,.48,1.16,1.44,1.44,0,0,1-.3.9,1.55,1.55,0,0,1-.8.54L87.92,61v0h-.48Zm-1.55-.38H86a1.29,1.29,0,0,0,.91-.32,1.12,1.12,0,0,0,.35-.84,1.1,1.1,0,0,0-.36-.88,1.47,1.47,0,0,0-1-.31H84.6Z" transform="translate(-1.83 -6.93)"/><path class="cls-1" d="M93.07,59.39a1.92,1.92,0,0,1-.6,1.29,2,2,0,0,1-1.36.45,1.85,1.85,0,0,1-1-.3,2,2,0,0,1-.71-.84,3,3,0,0,1-.25-1.24v-.7a3,3,0,0,1,.25-1.26,1.9,1.9,0,0,1,.71-.84,2,2,0,0,1,1.08-.3,1.89,1.89,0,0,1,1.35.46,1.92,1.92,0,0,1,.58,1.28h-.45A1.36,1.36,0,0,0,91.14,56a1.42,1.42,0,0,0-1.16.54,2.39,2.39,0,0,0-.43,1.5v.65A2.34,2.34,0,0,0,90,60.19a1.35,1.35,0,0,0,1.14.55,1.51,1.51,0,0,0,1.06-.33,1.67,1.67,0,0,0,.45-1Z" transform="translate(-1.83 -6.93)"/><path class="cls-1" d="M98.49,61.05H98V58.5H95v2.55h-.45V55.72H95v2.39H98V55.72h.45Z" transform="translate(-1.83 -6.93)"/><path class="cls-1" d="M105.44,59.74a.89.89,0,0,0-.31-.7,3.28,3.28,0,0,0-1.14-.49,4.19,4.19,0,0,1-1.21-.51,1.2,1.2,0,0,1-.54-1,1.17,1.17,0,0,1,.5-1,2.06,2.06,0,0,1,1.29-.38,2.1,2.1,0,0,1,1,.2,1.58,1.58,0,0,1,.65.57,1.56,1.56,0,0,1,.23.82h-.46a1.12,1.12,0,0,0-.37-.88,1.45,1.45,0,0,0-1-.33,1.63,1.63,0,0,0-1,.27.85.85,0,0,0-.36.71.8.8,0,0,0,.33.67,2.93,2.93,0,0,0,1,.45,4.93,4.93,0,0,1,1.09.41,1.72,1.72,0,0,1,.56.5,1.31,1.31,0,0,1,.18.69,1.21,1.21,0,0,1-.5,1,2.12,2.12,0,0,1-1.33.39,2.5,2.5,0,0,1-1-.21,1.58,1.58,0,0,1-.72-.56,1.47,1.47,0,0,1-.24-.83h.45a1.08,1.08,0,0,0,.42.89,1.75,1.75,0,0,0,1.12.32,1.67,1.67,0,0,0,1-.27A.87.87,0,0,0,105.44,59.74Z" transform="translate(-1.83 -6.93)"/><path class="cls-1" d="M111,59.39a1.92,1.92,0,0,1-.6,1.29,2,2,0,0,1-1.36.45,1.87,1.87,0,0,1-1-.3,1.94,1.94,0,0,1-.7-.84,3,3,0,0,1-.26-1.24v-.7a3.15,3.15,0,0,1,.25-1.26,1.92,1.92,0,0,1,3.72.6h-.45A1.36,1.36,0,0,0,109.08,56a1.4,1.4,0,0,0-1.15.54,2.33,2.33,0,0,0-.43,1.5v.65a2.34,2.34,0,0,0,.42,1.47,1.33,1.33,0,0,0,1.13.55,1.54,1.54,0,0,0,1.07-.33,1.72,1.72,0,0,0,.44-1Z" transform="translate(-1.83 -6.93)"/><path class="cls-1" d="M116.43,61.05H116V58.5h-3v2.55h-.45V55.72h.45v2.39h3V55.72h.45Z" transform="translate(-1.83 -6.93)"/><path class="cls-1" d="M122.1,58.67a3.08,3.08,0,0,1-.25,1.3,1.93,1.93,0,0,1-.73.86,2,2,0,0,1-1.09.3,1.93,1.93,0,0,1-1.51-.67,2.71,2.71,0,0,1-.57-1.81V58.1a3,3,0,0,1,.26-1.29A1.91,1.91,0,0,1,120,55.65a2,2,0,0,1,1.09.29,2,2,0,0,1,.73.84A2.92,2.92,0,0,1,122.1,58Zm-.45-.57a2.34,2.34,0,0,0-.43-1.51,1.56,1.56,0,0,0-2.38,0,2.38,2.38,0,0,0-.44,1.53v.55a2.38,2.38,0,0,0,.44,1.51,1.43,1.43,0,0,0,1.19.55,1.46,1.46,0,0,0,1.2-.54,2.48,2.48,0,0,0,.42-1.53Z" transform="translate(-1.83 -6.93)"/><path class="cls-1" d="M127.56,58.67a3.08,3.08,0,0,1-.26,1.3,1.93,1.93,0,0,1-.73.86,2,2,0,0,1-1.09.3,1.89,1.89,0,0,1-1.5-.67,2.66,2.66,0,0,1-.58-1.81V58.1a3.13,3.13,0,0,1,.26-1.29,1.93,1.93,0,0,1,.73-.86,2,2,0,0,1,1.09-.3,2,2,0,0,1,1.08.29,1.93,1.93,0,0,1,.73.84,3.07,3.07,0,0,1,.27,1.26Zm-.45-.57a2.34,2.34,0,0,0-.44-1.51,1.56,1.56,0,0,0-2.38,0,2.38,2.38,0,0,0-.44,1.53v.55a2.38,2.38,0,0,0,.44,1.51,1.43,1.43,0,0,0,1.19.55,1.46,1.46,0,0,0,1.2-.54,2.48,2.48,0,0,0,.43-1.53Z" transform="translate(-1.83 -6.93)"/><path class="cls-1" d="M129.52,60.67h2.63v.38h-3.08V55.72h.45Z" transform="translate(-1.83 -6.93)"/></g><g id="IMPRS"><rect class="cls-1" x="67.56" y="8.77" width="3.48" height="14.48"/><path class="cls-1" d="M132.5,26.31a4.13,4.13,0,0,0-2.35-3.73,12.11,12.11,0,0,0-2.46-1,7.88,7.88,0,0,1-2.1-.94,1.22,1.22,0,0,1-.06-2.06,2.45,2.45,0,0,1,1.48-.41,2.09,2.09,0,0,1,1.47.49,1.63,1.63,0,0,1,.48,1h3.49a4,4,0,0,0-.63-2,4.41,4.41,0,0,0-1.93-1.59,6.76,6.76,0,0,0-2.8-.56,7.5,7.5,0,0,0-2.88.52,4.55,4.55,0,0,0-2,1.43,3.44,3.44,0,0,0-.7,2.12q0,2.42,2.82,3.8a18.14,18.14,0,0,0,2.22.89,6.77,6.77,0,0,1,1.91.88,1.44,1.44,0,0,1,.54,1.2,1.21,1.21,0,0,1-.5,1,2.25,2.25,0,0,1-1.37.38,2.87,2.87,0,0,1-2-.55,2.23,2.23,0,0,1-.61-1.72h-3.5A4.49,4.49,0,0,0,121.8,28,4.88,4.88,0,0,0,124,29.74a7.83,7.83,0,0,0,3.19.63h0a6.39,6.39,0,0,0,3.93-1.08A3.54,3.54,0,0,0,132.5,26.31Z" transform="translate(-1.83 -6.93)"/><path class="cls-1" d="M103.71,16.3a6.9,6.9,0,0,0-2.94-.61H95V30.18h3.49V25.26h0V22.57h0V18.39h2.33a2,2,0,0,1,1.49.61,2.38,2.38,0,0,1,.55,1.63,1.88,1.88,0,0,1-.54,1.43,2.14,2.14,0,0,1-1.54.51h-1v2.69h.94A6.27,6.27,0,0,0,104.87,24a4.18,4.18,0,0,0,1.52-3.38,4.8,4.8,0,0,0-.7-2.56A4.62,4.62,0,0,0,103.71,16.3Z" transform="translate(-1.83 -6.93)"/><path class="cls-1" d="M118.72,22.57a4.77,4.77,0,0,0,.61-2.5,3.88,3.88,0,0,0-1.45-3.23,6.33,6.33,0,0,0-4-1.15h-5.7V30.18h3.49V25.05h1.89l2.56,5.13h3.73V30l-3-5.85A4.37,4.37,0,0,0,118.72,22.57Zm-3.38-.73a2,2,0,0,1-1.49.53h-2.21v-4h2.21a2,2,0,0,1,1.49.53,2.05,2.05,0,0,1,.51,1.47A2,2,0,0,1,115.34,21.84Z" transform="translate(-1.83 -6.93)"/><polygon class="cls-1" points="82.2 18.84 78.97 8.77 74.39 8.77 74.39 23.25 77.88 23.25 77.88 19.87 77.54 12.93 81.05 23.25 83.36 23.25 86.86 12.94 86.52 19.87 86.52 23.25 90.02 23.25 90.02 8.77 85.43 8.77 82.2 18.84"/></g></g></svg>