<?xml version="1.0" encoding="UTF-8"?>
<!DOCTYPE svg PUBLIC "-//W3C//DTD SVG 1.1//EN" "http://www.w3.org/Graphics/SVG/1.1/DTD/svg11.dtd">
<!-- Creator: CorelDRAW X7 -->
<svg xmlns="http://www.w3.org/2000/svg" xml:space="preserve" width="27.2004mm" height="15.5807mm" version="1.1" style="shape-rendering:geometricPrecision; text-rendering:geometricPrecision; image-rendering:optimizeQuality; fill-rule:evenodd; clip-rule:evenodd"
viewBox="0 0 462 264"
 xmlns:xlink="http://www.w3.org/1999/xlink">
 <defs>
  <style type="text/css">
   <![CDATA[
    .fil0 {fill:#0087CB}
   ]]>
  </style>
 </defs>
 <g id="Layer_x0020_1">
  <metadata id="CorelCorpID_0Corel-Layer"/>
  <path class="fil0" d="M178 178c-17,17 -36,48 -80,28 -90,-39 -3,-238 81,-118l44 -24c-62,-110 -222,-73 -223,69 -1,151 172,170 224,66l-46 -21z"/>
  <path class="fil0" d="M462 10l-62 -1c-12,22 -19,57 -27,85 -4,15 -8,27 -12,42l-14 36c-1,-1 -2,3 -3,4l-50 -167 -64 1 84 248 63 0 85 -248z"/>
 </g>
</svg>
